<svg xmlns="http://www.w3.org/2000/svg" width="32" height="32" viewBox="0 0 8.467 8.467"><g style="display:inline"><path d="M5.027 5.292h.265v.264h-.265ZM5.292 5.292h.264v.264h-.264Z" style="fill:#216778;fill-opacity:1;stroke-width:.26458332"/><path d="M5.556 5.292h.265v.264h-.265Z" style="fill:#216778;fill-opacity:1;stroke-width:.26458395"/><path d="M5.82 5.292h.265v.264h-.264ZM6.085 5.292h.265v.264h-.265ZM6.35 5.292h.265v.264H6.35ZM6.35 5.556h.265v.265H6.35ZM6.615 5.556h.264v.265h-.264Z" style="fill:#216778;fill-opacity:1;stroke-width:.26458332"/><path d="M6.615 5.82h.264v.265h-.264ZM6.88 5.82h.264v.265h-.265ZM6.88 6.085h.264v.265h-.265ZM7.144 6.085h.264v.265h-.264ZM7.144 6.35h.264v.265h-.264ZM7.144 6.615h.264v.264h-.264ZM7.144 6.88h.264v.264h-.264ZM6.88 6.88h.264v.264h-.265ZM6.615 6.88h.264v.264h-.264ZM6.35 6.88h.265v.264H6.35ZM6.085 6.88h.265v.264h-.265ZM5.82 6.88h.265v.264h-.264Z" style="fill:#216778;fill-opacity:1;stroke-width:.26458332"/><path d="M5.556 6.88h.265v.264h-.265ZM5.292 6.88h.264v.264h-.264ZM5.027 6.88h.265v.264h-.265ZM4.763 6.88h.264v.264h-.264ZM4.498 6.88h.265v.264h-.265ZM4.233 6.88h.265v.264h-.265ZM3.969 6.88h.264v.264H3.97ZM3.969 6.615h.264v.264H3.97ZM3.969 6.35h.264v.265H3.97ZM4.233 6.085h.265v.265h-.265ZM4.233 5.82h.265v.265h-.265ZM4.498 5.82h.265v.265h-.265Z" style="fill:#216778;fill-opacity:1;stroke-width:.26458332"/><path d="M4.498 5.556h.265v.265h-.265ZM4.763 5.556h.264v.265h-.264ZM4.763 5.292h.264v.264h-.264ZM3.969 6.085h.264v.265H3.97ZM5.027 5.556h.265v.265h-.265ZM5.292 5.556h.264v.265h-.264ZM5.556 5.556h.265v.265h-.265Z" style="fill:#216778;fill-opacity:1;stroke-width:.26458332"/><path d="M5.82 5.556h.265v.265h-.264ZM6.085 5.556h.265v.265h-.265ZM6.35 5.82h.265v.265H6.35Z" style="fill:#216778;fill-opacity:1;stroke-width:.26458332"/><path d="M6.085 5.82h.265v.265h-.265ZM5.82 5.82h.265v.265h-.264Z" style="fill:#216778;fill-opacity:1;stroke-width:.26458332"/><path d="M5.556 5.82h.265v.265h-.265ZM5.292 5.82h.264v.265h-.264ZM5.027 5.82h.265v.265h-.265ZM4.763 5.82h.264v.265h-.264ZM4.498 6.085h.265v.265h-.265ZM4.233 6.35h.265v.265h-.265ZM4.233 6.615h.265v.264h-.265ZM4.498 6.615h.265v.264h-.265ZM4.498 6.35h.265v.265h-.265ZM4.763 6.085h.264v.265h-.264ZM4.763 6.35h.264v.265h-.264ZM4.763 6.615h.264v.264h-.264ZM5.027 6.615h.265v.264h-.265ZM5.027 6.35h.265v.265h-.265ZM5.027 6.085h.265v.265h-.265ZM5.292 6.085h.264v.265h-.264ZM5.292 6.35h.264v.265h-.264ZM5.292 6.615h.264v.264h-.264ZM5.556 6.615h.265v.264h-.265ZM5.556 6.35h.265v.265h-.265ZM5.556 6.085h.265v.265h-.265Z" style="fill:#216778;fill-opacity:1;stroke-width:.26458332"/><path d="M5.82 6.085h.265v.265h-.264ZM5.82 6.35h.265v.265h-.264ZM5.82 6.615h.265v.264h-.264ZM6.085 6.615h.265v.264h-.265ZM6.085 6.35h.265v.265h-.265ZM6.085 6.085h.265v.265h-.265ZM6.35 6.085h.265v.265H6.35ZM6.35 6.35h.265v.265H6.35ZM6.35 6.615h.265v.264H6.35ZM6.615 6.615h.264v.264h-.264ZM6.88 6.615h.264v.264h-.265ZM6.88 6.35h.264v.265h-.265ZM6.615 6.35h.264v.265h-.264ZM6.615 6.085h.264v.265h-.264Z" style="fill:#216778;fill-opacity:1;stroke-width:.26458332"/></g><g style="display:inline"><path d="M3.704.53h.265v.264h-.265Z" style="fill:#498795;fill-opacity:1;stroke-width:.26458332"/><path d="M3.704 6.615h.265v.264h-.265ZM3.44.53h.264v.264H3.44ZM3.175.53h.265v.264h-.265Z" style="display:inline;fill:#498795;fill-opacity:1;stroke-width:.26458332"/><path d="M2.91.53h.265v.264H2.91ZM2.646.794h.264v.264h-.264ZM2.381.794h.265v.264H2.38ZM1.587 1.323h.265v.264h-.265ZM1.323 1.852h.264v.265h-.264ZM1.058 2.117h.265v.264h-.265ZM.794 3.969h.264v.264H.794ZM1.058 4.498h.265v.264h-.265ZM1.058 4.763h.265v.264h-.265ZM1.323 4.763h.264v.264h-.264ZM1.323 5.027h.264v.265h-.264ZM1.587 5.292h.265v.264h-.265ZM1.852 5.556h.265v.265h-.265ZM2.381 6.085h.265v.265H2.38ZM2.646 6.35h.264v.265h-.264ZM2.91 6.35h.265v.265H2.91ZM3.44 6.615h.264v.264H3.44Z" style="display:inline;fill:#498795;fill-opacity:1;stroke-width:.26458332"/><path d="M2.117 6.085h.264v.265h-.264ZM1.852 5.82h.265v.265h-.265ZM1.587 5.556h.265v.265h-.265ZM1.323 5.292h.264v.264h-.264ZM.794 4.233h.264v.265H.794ZM.794 2.646h.264v.264H.794ZM3.175 6.615h.265v.264h-.265ZM2.646.53h.264v.264h-.264ZM2.117.794h.264v.264h-.264ZM1.323 1.587h.264v.265h-.264ZM1.323 4.498h.264v.264h-.264ZM1.852 5.292h.265v.264h-.265ZM1.587 5.027h.265v.265h-.265ZM1.852 5.027h.265v.265h-.265ZM3.44.53h.264v.264H3.44ZM3.175.53h.265v.264h-.265Z" style="display:inline;fill:#498795;fill-opacity:1;stroke-width:.26458332"/><path d="M2.91.53h.265v.264H2.91ZM2.381.794h.265v.264H2.38ZM1.587 1.323h.265v.265h-.265ZM1.323 1.852h.264v.265h-.264ZM1.058 2.117h.265v.264h-.265ZM.794 3.969h.264v.264H.794ZM1.323 4.763h.264v.264h-.264ZM1.323 5.027h.264v.265h-.264ZM1.587 5.292h.265v.264h-.265Z" style="display:inline;fill:#498795;fill-opacity:1;stroke-width:.26458332"/><path d="M1.323 5.292h.264v.264h-.264ZM.794 2.646h.264v.264H.794ZM2.646.53h.264v.264h-.264ZM2.117.794h.264v.264h-.264ZM1.323 1.588h.264v.264h-.264ZM1.323 4.498h.264v.265h-.264ZM1.852 5.292h.265v.264h-.265Z" style="display:inline;fill:#498795;fill-opacity:1;stroke-width:.26458332"/><path d="M3.702 6.218c0-.073 0-.102.002-.065a4.231 4.231 0 0 1-.002.065z" style="fill:#498795;fill-opacity:1;stroke-width:.00413411"/><path d="M.794 2.91h.264v.265H.794Z" style="display:inline;fill:#498795;fill-opacity:1;stroke-width:.26458332"/><path d="M.794 3.175h.264v.265H.794ZM.794 3.44h.264v.264H.794ZM.794 3.704h.264v.265H.794ZM1.058 2.381h.265v.265h-.265ZM3.704.265h.265v.264h-.265ZM3.175.265h.265v.264h-.265ZM3.44.265h.264v.264H3.44ZM1.058 2.646h.265v.264h-.265Z" style="display:inline;fill:#498795;fill-opacity:1;stroke-width:.26458332"/><path d="M1.058 2.91h.265v.265h-.265Z" style="display:inline;fill:#498795;fill-opacity:1;stroke-width:.26458332"/><path d="M1.058 3.175h.265v.265h-.265ZM1.058 3.44h.265v.264h-.265ZM1.058 3.704h.265v.265h-.265Z" style="display:inline;fill:#498795;fill-opacity:1;stroke-width:.26458332"/><path d="M1.058 3.969h.265v.264h-.265ZM1.058 4.233h.265v.265h-.265ZM1.323 4.233h.264v.265h-.264ZM1.323 3.969h.264v.264h-.264Z" style="display:inline;fill:#498795;fill-opacity:1;stroke-width:.26458332"/><path d="M1.323 3.704h.264v.265h-.264ZM1.323 3.44h.264v.264h-.264ZM1.323 3.175h.264v.265h-.264Z" style="display:inline;fill:#498795;fill-opacity:1;stroke-width:.26458332"/><path d="M1.323 2.91h.264v.265h-.264ZM1.323 2.646h.264v.264h-.264ZM1.323 2.381h.264v.265h-.264Z" style="display:inline;fill:#498795;fill-opacity:1;stroke-width:.26458332"/><path d="M1.323 2.117h.264v.264h-.264ZM1.587 1.852h.265v.265h-.265ZM1.587 1.587h.265v.265h-.265ZM1.852 1.058h.265v.265h-.265ZM1.852 1.323h.265v.264h-.265ZM1.852 1.587h.265v.265h-.265Z" style="display:inline;fill:#498795;fill-opacity:1;stroke-width:.26458332"/><path d="M1.587 2.117h.265v.264h-.265Z" style="display:inline;fill:#498795;fill-opacity:1;stroke-width:.26458332"/><path d="M1.587 2.381h.265v.265h-.265ZM1.587 2.646h.265v.264h-.265ZM1.587 2.91h.265v.265h-.265Z" style="display:inline;fill:#498795;fill-opacity:1;stroke-width:.26458332"/><path d="M1.587 3.175h.265v.265h-.265ZM1.587 3.44h.265v.264h-.265ZM1.587 3.704h.265v.265h-.265ZM1.587 4.233h.265v.265h-.265Z" style="display:inline;fill:#498795;fill-opacity:1;stroke-width:.26458332"/><path d="M1.587 3.969h.265v.264h-.265ZM1.587 4.498h.265v.264h-.265ZM1.587 4.763h.265v.264h-.265ZM1.852 4.763h.265v.264h-.265ZM1.852 4.498h.265v.264h-.265ZM1.852 4.233h.265v.265h-.265ZM1.852 3.969h.265v.264h-.265Z" style="display:inline;fill:#498795;fill-opacity:1;stroke-width:.26458332"/><path d="M1.852 3.704h.265v.265h-.265ZM1.852 3.44h.265v.264h-.265ZM1.852 3.175h.265v.265h-.265Z" style="display:inline;fill:#498795;fill-opacity:1;stroke-width:.26458332"/><path d="M1.852 2.91h.265v.265h-.265ZM1.852 2.646h.265v.264h-.265ZM1.852 2.381h.265v.265h-.265Z" style="display:inline;fill:#498795;fill-opacity:1;stroke-width:.26458332"/><path d="M1.852 2.117h.265v.264h-.265ZM1.852 1.852h.265v.265h-.265ZM2.117 5.82h.264v.265h-.264Z" style="display:inline;fill:#498795;fill-opacity:1;stroke-width:.26458332"/><path d="M2.381 5.82h.265v.265H2.38Z" style="display:inline;fill:#498795;fill-opacity:1;stroke-width:.26458332"/><path d="M2.381 5.556h.265v.265H2.38Z" style="display:inline;fill:#498795;fill-opacity:1;stroke-width:.26458332"/><path d="M2.117 5.556h.264v.265h-.264ZM2.117 5.292h.264v.264h-.264Z" style="display:inline;fill:#498795;fill-opacity:1;stroke-width:.26458332"/><path d="M2.381 5.292h.265v.264H2.38ZM2.381 5.027h.265v.265H2.38Z" style="display:inline;fill:#498795;fill-opacity:1;stroke-width:.26458332"/><path d="M2.117 5.027h.264v.265h-.264ZM2.117 4.763h.264v.264h-.264Z" style="display:inline;fill:#498795;fill-opacity:1;stroke-width:.26458332"/><path d="M2.381 4.763h.265v.264H2.38ZM2.381 4.498h.265v.264H2.38Z" style="display:inline;fill:#498795;fill-opacity:1;stroke-width:.26458332"/><path d="M2.117 4.498h.264v.264h-.264ZM2.117 4.233h.264v.265h-.264Z" style="display:inline;fill:#498795;fill-opacity:1;stroke-width:.26458332"/><path d="M2.381 4.233h.265v.265H2.38ZM2.381 3.969h.265v.264H2.38Z" style="display:inline;fill:#498795;fill-opacity:1;stroke-width:.26458332"/><path d="M2.117 3.704h.264v.265h-.264Z" style="display:inline;fill:#498795;fill-opacity:1;stroke-width:.26458332"/><path d="M2.381 3.704h.265v.265H2.38ZM2.381 3.44h.265v.264H2.38Z" style="display:inline;fill:#498795;fill-opacity:1;stroke-width:.26458332"/><path d="M2.117 3.44h.264v.264h-.264ZM2.117 3.175h.264v.265h-.264Z" style="display:inline;fill:#498795;fill-opacity:1;stroke-width:.26458332"/><path d="M2.381 3.175h.265v.265H2.38Z" style="display:inline;fill:#498795;fill-opacity:1;stroke-width:.26458332"/><path d="M2.381 2.91h.265v.265H2.38Z" style="display:inline;fill:#498795;fill-opacity:1;stroke-width:.26458332"/><path d="M2.117 2.91h.264v.265h-.264ZM2.117 2.646h.264v.264h-.264Z" style="display:inline;fill:#498795;fill-opacity:1;stroke-width:.26458332"/><path d="M2.381 2.646h.265v.264H2.38ZM2.381 2.381h.265v.265H2.38Z" style="display:inline;fill:#498795;fill-opacity:1;stroke-width:.26458332"/><path d="M2.117 2.381h.264v.265h-.264Z" style="display:inline;fill:#498795;fill-opacity:1;stroke-width:.26458332"/><path d="M2.117 2.117h.264v.264h-.264Z" style="display:inline;fill:#498795;fill-opacity:1;stroke-width:.26458332"/><path d="M2.381 2.117h.265v.264H2.38ZM2.381 1.852h.265v.265H2.38Z" style="display:inline;fill:#498795;fill-opacity:1;stroke-width:.26458332"/><path d="M2.117 1.852h.264v.265h-.264ZM2.117 1.587h.264v.265h-.264Z" style="display:inline;fill:#498795;fill-opacity:1;stroke-width:.26458332"/><path d="M2.381 1.587h.265v.265H2.38ZM2.381 1.323h.265v.264H2.38Z" style="display:inline;fill:#498795;fill-opacity:1;stroke-width:.26458332"/><path d="M2.117 1.323h.264v.264h-.264ZM2.117 1.058h.264v.265h-.264Z" style="display:inline;fill:#498795;fill-opacity:1;stroke-width:.26458332"/><path d="M2.381 1.058h.265v.265H2.38ZM2.646 1.058h.264v.265h-.264ZM2.91.794h.265v.264H2.91ZM2.91 1.058h.265v.265H2.91ZM2.91 1.323h.265v.264H2.91ZM2.646 1.323h.264v.264h-.264ZM2.646 1.587h.264v.265h-.264ZM2.91 1.587h.265v.265H2.91ZM2.91 1.852h.265v.265H2.91ZM2.646 1.852h.264v.265h-.264ZM2.646 2.117h.264v.264h-.264ZM2.91 2.117h.265v.264H2.91Z" style="display:inline;fill:#498795;fill-opacity:1;stroke-width:.26458332"/><path d="M2.91 2.381h.265v.265H2.91ZM2.646 2.381h.264v.265h-.264ZM2.646 2.646h.264v.264h-.264ZM2.91 2.646h.265v.264H2.91ZM2.91 2.91h.265v.265H2.91ZM2.646 2.91h.264v.265h-.264Z" style="display:inline;fill:#498795;fill-opacity:1;stroke-width:.26458332"/><path d="M2.646 3.175h.264v.265h-.264ZM2.91 3.175h.265v.265H2.91ZM2.91 3.44h.265v.264H2.91ZM2.646 3.44h.264v.264h-.264ZM2.646 3.704h.264v.265h-.264ZM2.91 3.704h.265v.265H2.91Z" style="display:inline;fill:#498795;fill-opacity:1;stroke-width:.26458332"/><path d="M2.91 3.969h.265v.264H2.91ZM2.91 4.233h.265v.265H2.91ZM2.91 4.498h.265v.264H2.91ZM2.646 4.498h.264v.264h-.264ZM2.646 4.763h.264v.264h-.264ZM2.91 4.763h.265v.264H2.91ZM2.91 5.027h.265v.265H2.91ZM2.646 5.027h.264v.265h-.264ZM2.646 5.292h.264v.264h-.264ZM2.91 5.292h.265v.264H2.91ZM2.91 5.556h.265v.265H2.91ZM2.646 5.556h.264v.265h-.264Z" style="display:inline;fill:#498795;fill-opacity:1;stroke-width:.26458332"/><path d="M2.646 5.82h.264v.265h-.264ZM2.91 5.82h.265v.265H2.91ZM2.91 6.085h.265v.265H2.91ZM2.646 6.085h.264v.265h-.264ZM3.175 6.35h.265v.265h-.265ZM3.44 6.35h.264v.265H3.44ZM3.704 6.35h.265v.265h-.265ZM3.704 6.085h.265v.265h-.265ZM3.44 6.085h.264v.265H3.44Z" style="display:inline;fill:#498795;fill-opacity:1;stroke-width:.26458332"/><path d="M3.175 6.085h.265v.265h-.265ZM3.175 5.82h.265v.265h-.265ZM3.704 5.82h.265v.265h-.265ZM3.44 5.82h.264v.265H3.44Z" style="display:inline;fill:#498795;fill-opacity:1;stroke-width:.26458332"/><path d="M3.175 5.556h.265v.265h-.265ZM3.44 5.556h.264v.265H3.44ZM3.704 5.556h.265v.265h-.265ZM3.704 5.292h.265v.264h-.265ZM3.44 5.292h.264v.264H3.44ZM3.175 5.292h.265v.264h-.265ZM3.175 5.027h.265v.265h-.265ZM3.44 5.027h.264v.265H3.44ZM3.704 5.027h.265v.265h-.265ZM3.704 4.763h.265v.264h-.265ZM3.175 4.763h.265v.264h-.265ZM3.44 4.763h.264v.264H3.44ZM3.175 4.498h.265v.264h-.265ZM3.44 4.498h.264v.264H3.44ZM3.704 4.498h.265v.264h-.265ZM3.704 4.233h.265v.265h-.265ZM3.44 4.233h.264v.265H3.44ZM3.175 4.233h.265v.265h-.265ZM3.175 3.969h.265v.264h-.265ZM3.44 3.969h.264v.264H3.44ZM3.704 3.969h.265v.264h-.265Z" style="display:inline;fill:#498795;fill-opacity:1;stroke-width:.26458332"/><path d="M3.704 3.704h.265v.265h-.265ZM3.44 3.704h.264v.265H3.44ZM3.175 3.704h.265v.265h-.265ZM3.175 3.44h.265v.264h-.265ZM3.44 3.44h.264v.264H3.44ZM3.704 3.44h.265v.264h-.265ZM3.704 3.175h.265v.265h-.265ZM3.44 3.175h.264v.265H3.44ZM3.175 3.175h.265v.265h-.265Z" style="display:inline;fill:#498795;fill-opacity:1;stroke-width:.26458332"/><path d="M3.175 2.91h.265v.265h-.265ZM3.44 2.91h.264v.265H3.44ZM3.704 2.91h.265v.265h-.265ZM3.704 2.646h.265v.264h-.265ZM3.44 2.646h.264v.264H3.44ZM3.175 2.646h.265v.264h-.265ZM2.117 3.969h.264v.264h-.264ZM2.646 3.969h.264v.264h-.264ZM2.646 4.233h.264v.265h-.264ZM3.175 2.381h.265v.265h-.265ZM3.44 2.381h.264v.265H3.44ZM3.704 2.381h.265v.265h-.265Z" style="display:inline;fill:#498795;fill-opacity:1;stroke-width:.26458332"/><path d="M3.704 2.117h.265v.264h-.265ZM3.44 2.117h.264v.264H3.44ZM3.175 2.117h.265v.264h-.265ZM3.175 1.852h.265v.265h-.265ZM3.44 1.852h.264v.265H3.44ZM3.704 1.852h.265v.265h-.265ZM3.704 1.587h.265v.265h-.265ZM3.44 1.587h.264v.265H3.44ZM3.175 1.587h.265v.265h-.265ZM3.175 1.323h.265v.264h-.265ZM3.44 1.323h.264v.264H3.44ZM3.704 1.323h.265v.264h-.265ZM3.704 1.058h.265v.265h-.265ZM3.44 1.058h.264v.265H3.44ZM3.175 1.058h.265v.265h-.265ZM3.175.794h.265v.264h-.265ZM3.44.794h.264v.264H3.44ZM3.704.794h.265v.264h-.265Z" style="display:inline;fill:#498795;fill-opacity:1;stroke-width:.26458332"/><path d="M4.233.53H3.97v.264h.264z" style="fill:#498795;fill-opacity:1;stroke-width:.26458332"/><path d="M4.233 6.615H3.97v.264h.264zM4.498.53h-.265v.264h.265z" style="display:inline;fill:#498795;fill-opacity:1;stroke-width:.26458332"/><path d="M4.762.53h-.264v.264h.264zM5.027.53h-.265v.264h.265zM5.292.794h-.265v.264h.265zM5.556.794h-.264v.264h.264zM6.35 1.323h-.265v.264h.265zM6.615 1.852H6.35v.265h.265zM6.88 2.117h-.265v.264h.264zM7.144 3.969h-.265v.264h.265zM6.88 4.498h-.265v.264h.264zM6.88 4.763h-.265v.264h.264zM6.615 4.763H6.35v.264h.265zM6.615 5.027H6.35v.265h.265zM6.35 5.292h-.265v.264h.265zM6.085 5.556h-.264v.265h.264zM5.556 6.085h-.264v.265h.264zM5.292 6.35h-.265v.265h.265zM5.027 6.35h-.265v.265h.265zM4.498 6.615h-.265v.264h.265zM5.82 6.085h-.264v.265h.265z" style="display:inline;fill:#498795;fill-opacity:1;stroke-width:.26458332"/><path d="M6.085 5.82h-.264v.265h.264zM6.35 5.556h-.265v.265h.265zM6.615 5.292H6.35v.264h.265zM7.144 4.233h-.265v.265h.265zM7.144 2.646h-.265v.264h.265zM4.762 6.615h-.264v.264h.264zM5.292.53h-.265v.264h.265zM5.82.794h-.264v.264h.265zM6.615 1.587H6.35v.265h.265zM6.615 4.498H6.35v.264h.265zM6.085 5.292h-.264v.264h.264zM6.35 5.027h-.265v.265h.265zM6.085 5.027h-.264v.265h.264zM4.498.53h-.265v.264h.265z" style="display:inline;fill:#498795;fill-opacity:1;stroke-width:.26458332"/><path d="M4.762.53h-.264v.264h.264zM5.027.53h-.265v.264h.265zM5.556.794h-.264v.264h.264zM6.35 1.323h-.265v.265h.265zM6.615 1.852H6.35v.265h.265zM6.88 2.117h-.265v.264h.264zM7.144 3.969h-.265v.264h.265zM6.615 4.763H6.35v.264h.265zM6.615 5.027H6.35v.265h.265zM6.35 5.292h-.265v.264h.265zM6.615 5.292H6.35v.264h.265zM7.144 2.646h-.265v.264h.265zM5.292.53h-.265v.264h.265zM5.82.794h-.264v.264h.265zM6.615 1.588H6.35v.264h.265zM6.615 4.498H6.35v.265h.265zM6.085 5.292h-.264v.264h.264z" style="display:inline;fill:#498795;fill-opacity:1;stroke-width:.26458332"/><path d="M4.235 6.218c0-.073 0-.102-.001-.065a4.231 4.231 0 0 0 .001.065z" style="fill:#498795;fill-opacity:1;stroke-width:.00413411"/><path d="M7.144 2.91h-.265v.265h.265z" style="display:inline;fill:#498795;fill-opacity:1;stroke-width:.26458332"/><path d="M7.144 3.175h-.265v.265h.265zM7.144 3.44h-.265v.264h.265zM7.144 3.704h-.265v.265h.265zM6.88 2.381h-.265v.265h.264zM4.233.265H3.97v.264h.264ZM4.762.265h-.264v.264h.264z" style="display:inline;fill:#498795;fill-opacity:1;stroke-width:.26458332"/><path d="M4.498.265h-.265v.264h.265zM6.88 2.646h-.265v.264h.264zM6.88 2.91h-.265v.265h.264z" style="display:inline;fill:#498795;fill-opacity:1;stroke-width:.26458332"/><path d="M6.88 3.175h-.265v.265h.264zM6.88 3.44h-.265v.264h.264zM6.88 3.704h-.265v.265h.264z" style="display:inline;fill:#498795;fill-opacity:1;stroke-width:.26458332"/><path d="M6.88 3.969h-.265v.264h.264zM6.88 4.233h-.265v.265h.264zM6.615 4.233H6.35v.265h.265zM6.615 3.969H6.35v.264h.265z" style="display:inline;fill:#498795;fill-opacity:1;stroke-width:.26458332"/><path d="M6.615 3.704H6.35v.265h.265zM6.615 3.44H6.35v.264h.265zM6.615 3.175H6.35v.265h.265z" style="display:inline;fill:#498795;fill-opacity:1;stroke-width:.26458332"/><path d="M6.615 2.91H6.35v.265h.265zM6.615 2.646H6.35v.264h.265zM6.615 2.381H6.35v.265h.265z" style="display:inline;fill:#498795;fill-opacity:1;stroke-width:.26458332"/><path d="M6.615 2.117H6.35v.264h.265zM6.35 1.852h-.265v.265h.265zM6.35 1.587h-.265v.265h.265zM6.085 1.058h-.264v.265h.264zM6.085 1.323h-.264v.264h.264zM6.085 1.587h-.264v.265h.264zM6.35 2.117h-.265v.264h.265z" style="display:inline;fill:#498795;fill-opacity:1;stroke-width:.26458332"/><path d="M6.35 2.381h-.265v.265h.265zM6.35 2.646h-.265v.264h.265zM6.35 2.91h-.265v.265h.265z" style="display:inline;fill:#498795;fill-opacity:1;stroke-width:.26458332"/><path d="M6.35 3.175h-.265v.265h.265zM6.35 3.44h-.265v.264h.265zM6.35 3.704h-.265v.265h.265zM6.35 4.233h-.265v.265h.265z" style="display:inline;fill:#498795;fill-opacity:1;stroke-width:.26458332"/><path d="M6.35 3.969h-.265v.264h.265zM6.35 4.498h-.265v.264h.265zM6.35 4.763h-.265v.264h.265zM6.085 4.763h-.264v.264h.264zM6.085 4.498h-.264v.264h.264zM6.085 4.233h-.264v.265h.264zM6.085 3.969h-.264v.264h.264z" style="display:inline;fill:#498795;fill-opacity:1;stroke-width:.26458332"/><path d="M6.085 3.704h-.264v.265h.264zM6.085 3.44h-.264v.264h.264zM6.085 3.175h-.264v.265h.264z" style="display:inline;fill:#498795;fill-opacity:1;stroke-width:.26458332"/><path d="M6.085 2.91h-.264v.265h.264zM6.085 2.646h-.264v.264h.264zM6.085 2.381h-.264v.265h.264z" style="display:inline;fill:#498795;fill-opacity:1;stroke-width:.26458332"/><path d="M6.085 2.117h-.264v.264h.264zM6.085 1.852h-.264v.265h.264zM5.82 5.82h-.264v.265h.265zM5.556 5.82h-.264v.265h.264z" style="display:inline;fill:#498795;fill-opacity:1;stroke-width:.26458332"/><path d="M5.556 5.556h-.264v.265h.264zM5.82 5.556h-.264v.265h.265zM5.82 5.292h-.264v.264h.265zM5.556 5.292h-.264v.264h.264zM5.556 5.027h-.264v.265h.264zM5.82 5.027h-.264v.265h.265zM5.82 4.763h-.264v.264h.265zM5.556 4.763h-.264v.264h.264zM5.556 4.498h-.264v.264h.264zM5.82 4.498h-.264v.264h.265zM5.82 4.233h-.264v.265h.265zM5.556 4.233h-.264v.265h.264zM5.556 3.969h-.264v.264h.264zM5.82 3.704h-.264v.265h.265z" style="display:inline;fill:#498795;fill-opacity:1;stroke-width:.26458332"/><path d="M5.556 3.704h-.264v.265h.264zM5.556 3.44h-.264v.264h.264zM5.82 3.44h-.264v.264h.265zM5.82 3.175h-.264v.265h.265zM5.556 3.175h-.264v.265h.264z" style="display:inline;fill:#498795;fill-opacity:1;stroke-width:.26458332"/><path d="M5.556 2.91h-.264v.265h.264zM5.82 2.91h-.264v.265h.265zM5.82 2.646h-.264v.264h.265zM5.556 2.646h-.264v.264h.264zM5.556 2.381h-.264v.265h.264zM5.82 2.381h-.264v.265h.265z" style="display:inline;fill:#498795;fill-opacity:1;stroke-width:.26458332"/><path d="M5.82 2.117h-.264v.264h.265zM5.556 2.117h-.264v.264h.264zM5.556 1.852h-.264v.265h.264zM5.82 1.852h-.264v.265h.265zM5.82 1.587h-.264v.265h.265zM5.556 1.587h-.264v.265h.264zM5.556 1.323h-.264v.264h.264zM5.82 1.323h-.264v.264h.265zM5.82 1.058h-.264v.265h.265zM5.556 1.058h-.264v.265h.264zM5.292 1.058h-.265v.265h.265zM5.027.794h-.265v.264h.265zM5.027 1.058h-.265v.265h.265zM5.027 1.323h-.265v.264h.265zM5.292 1.323h-.265v.264h.265zM5.292 1.587h-.265v.265h.265zM5.027 1.587h-.265v.265h.265zM5.027 1.852h-.265v.265h.265zM5.292 1.852h-.265v.265h.265zM5.292 2.117h-.265v.264h.265zM5.027 2.117h-.265v.264h.265z" style="display:inline;fill:#498795;fill-opacity:1;stroke-width:.26458332"/><path d="M5.027 2.381h-.265v.265h.265zM5.292 2.381h-.265v.265h.265zM5.292 2.646h-.265v.264h.265zM5.027 2.646h-.265v.264h.265zM5.027 2.91h-.265v.265h.265zM5.292 2.91h-.265v.265h.265z" style="display:inline;fill:#498795;fill-opacity:1;stroke-width:.26458332"/><path d="M5.292 3.175h-.265v.265h.265zM5.027 3.175h-.265v.265h.265zM5.027 3.44h-.265v.264h.265zM5.292 3.44h-.265v.264h.265zM5.292 3.704h-.265v.265h.265zM5.027 3.704h-.265v.265h.265z" style="display:inline;fill:#498795;fill-opacity:1;stroke-width:.26458332"/><path d="M5.027 3.969h-.265v.264h.265zM5.027 4.233h-.265v.265h.265zM5.027 4.498h-.265v.264h.265zM5.292 4.498h-.265v.264h.265zM5.292 4.763h-.265v.264h.265zM5.027 4.763h-.265v.264h.265zM5.027 5.027h-.265v.265h.265zM5.292 5.027h-.265v.265h.265zM5.292 5.292h-.265v.264h.265zM5.027 5.292h-.265v.264h.265zM5.027 5.556h-.265v.265h.265zM5.292 5.556h-.265v.265h.265z" style="display:inline;fill:#498795;fill-opacity:1;stroke-width:.26458332"/><path d="M5.292 5.82h-.265v.265h.265zM5.027 5.82h-.265v.265h.265zM5.027 6.085h-.265v.265h.265zM5.292 6.085h-.265v.265h.265zM4.762 6.35h-.264v.265h.264z" style="display:inline;fill:#498795;fill-opacity:1;stroke-width:.26458332"/><path d="M4.498 6.35h-.265v.265h.265z" style="display:inline;fill:#498795;fill-opacity:1;stroke-width:.26458332"/><path d="M4.233 6.35H3.97v.265h.264ZM4.233 6.085H3.97v.265h.264Z" style="display:inline;fill:#498795;fill-opacity:1;stroke-width:.26458332"/><path d="M4.498 6.085h-.265v.265h.265z" style="display:inline;fill:#498795;fill-opacity:1;stroke-width:.26458332"/><path d="M4.762 6.085h-.264v.265h.264zM4.762 5.82h-.264v.265h.264zM4.233 5.82H3.97v.265h.264Z" style="display:inline;fill:#498795;fill-opacity:1;stroke-width:.26458332"/><path d="M4.498 5.82h-.265v.265h.265z" style="display:inline;fill:#498795;fill-opacity:1;stroke-width:.26458332"/><path d="M4.762 5.556h-.264v.265h.264z" style="display:inline;fill:#498795;fill-opacity:1;stroke-width:.26458332"/><path d="M4.498 5.556h-.265v.265h.265z" style="display:inline;fill:#498795;fill-opacity:1;stroke-width:.26458332"/><path d="M4.233 5.556H3.97v.265h.264ZM4.233 5.292H3.97v.264h.264Z" style="display:inline;fill:#498795;fill-opacity:1;stroke-width:.26458332"/><path d="M4.498 5.292h-.265v.264h.265z" style="display:inline;fill:#498795;fill-opacity:1;stroke-width:.26458332"/><path d="M4.762 5.292h-.264v.264h.264zM4.762 5.027h-.264v.265h.264z" style="display:inline;fill:#498795;fill-opacity:1;stroke-width:.26458332"/><path d="M4.498 5.027h-.265v.265h.265z" style="display:inline;fill:#498795;fill-opacity:1;stroke-width:.26458332"/><path d="M4.233 5.027H3.97v.265h.264ZM4.233 4.763H3.97v.264h.264ZM4.762 4.763h-.264v.264h.264z" style="display:inline;fill:#498795;fill-opacity:1;stroke-width:.26458332"/><path d="M4.498 4.763h-.265v.264h.265zM4.762 4.498h-.264v.264h.264z" style="display:inline;fill:#498795;fill-opacity:1;stroke-width:.26458332"/><path d="M4.498 4.498h-.265v.264h.265z" style="display:inline;fill:#498795;fill-opacity:1;stroke-width:.26458332"/><path d="M4.233 4.498H3.97v.264h.264ZM4.233 4.233H3.97v.265h.264Z" style="display:inline;fill:#498795;fill-opacity:1;stroke-width:.26458332"/><path d="M4.498 4.233h-.265v.265h.265z" style="display:inline;fill:#498795;fill-opacity:1;stroke-width:.26458332"/><path d="M4.762 4.233h-.264v.265h.264zM4.762 3.969h-.264v.264h.264z" style="display:inline;fill:#498795;fill-opacity:1;stroke-width:.26458332"/><path d="M4.498 3.969h-.265v.264h.265z" style="display:inline;fill:#498795;fill-opacity:1;stroke-width:.26458332"/><path d="M4.233 3.969H3.97v.264h.264Z" style="display:inline;fill:#498795;fill-opacity:1;stroke-width:.26458332"/><path d="M4.233 3.704H3.97v.265h.264Z" style="display:inline;fill:#498795;fill-opacity:1;stroke-width:.26458332"/><path d="M4.498 3.704h-.265v.265h.265z" style="display:inline;fill:#498795;fill-opacity:1;stroke-width:.26458332"/><path d="M4.762 3.704h-.264v.265h.264zM4.762 3.44h-.264v.264h.264z" style="display:inline;fill:#498795;fill-opacity:1;stroke-width:.26458332"/><path d="M4.498 3.44h-.265v.264h.265z" style="display:inline;fill:#498795;fill-opacity:1;stroke-width:.26458332"/><path d="M4.233 3.44H3.97v.264h.264ZM4.233 3.175H3.97v.265h.264Z" style="display:inline;fill:#498795;fill-opacity:1;stroke-width:.26458332"/><path d="M4.498 3.175h-.265v.265h.265z" style="display:inline;fill:#498795;fill-opacity:1;stroke-width:.26458332"/><path d="M4.762 3.175h-.264v.265h.264z" style="display:inline;fill:#498795;fill-opacity:1;stroke-width:.26458332"/><path d="M4.762 2.91h-.264v.265h.264z" style="display:inline;fill:#498795;fill-opacity:1;stroke-width:.26458332"/><path d="M4.498 2.91h-.265v.265h.265z" style="display:inline;fill:#498795;fill-opacity:1;stroke-width:.26458332"/><path d="M4.233 2.91H3.97v.265h.264ZM4.233 2.646H3.97v.264h.264Z" style="display:inline;fill:#498795;fill-opacity:1;stroke-width:.26458332"/><path d="M4.498 2.646h-.265v.264h.265z" style="display:inline;fill:#498795;fill-opacity:1;stroke-width:.26458332"/><path d="M4.762 2.646h-.264v.264h.264zM5.82 3.969h-.264v.264h.265zM5.292 3.969h-.265v.264h.265zM5.292 4.233h-.265v.265h.265zM4.762 2.381h-.264v.265h.264z" style="display:inline;fill:#498795;fill-opacity:1;stroke-width:.26458332"/><path d="M4.498 2.381h-.265v.265h.265z" style="display:inline;fill:#498795;fill-opacity:1;stroke-width:.26458332"/><path d="M4.233 2.381H3.97v.265h.264z" style="display:inline;fill:#498795;fill-opacity:1;stroke-width:.26458332"/><path d="M4.233 2.117H3.97v.264h.264z" style="display:inline;fill:#498795;fill-opacity:1;stroke-width:.26458332"/><path d="M4.498 2.117h-.265v.264h.265z" style="display:inline;fill:#498795;fill-opacity:1;stroke-width:.26458332"/><path d="M4.762 2.117h-.264v.264h.264zM4.762 1.852h-.264v.265h.264z" style="display:inline;fill:#498795;fill-opacity:1;stroke-width:.26458332"/><path d="M4.498 1.852h-.265v.265h.265z" style="display:inline;fill:#498795;fill-opacity:1;stroke-width:.26458332"/><path d="M4.233 1.852H3.97v.265h.264zM4.233 1.587H3.97v.265h.264z" style="display:inline;fill:#498795;fill-opacity:1;stroke-width:.26458332"/><path d="M4.498 1.587h-.265v.265h.265z" style="display:inline;fill:#498795;fill-opacity:1;stroke-width:.26458332"/><path d="M4.762 1.587h-.264v.265h.264zM4.762 1.323h-.264v.264h.264z" style="display:inline;fill:#498795;fill-opacity:1;stroke-width:.26458332"/><path d="M4.498 1.323h-.265v.264h.265z" style="display:inline;fill:#498795;fill-opacity:1;stroke-width:.26458332"/><path d="M4.233 1.323H3.97v.264h.264zM4.233 1.058H3.97v.265h.264z" style="display:inline;fill:#498795;fill-opacity:1;stroke-width:.26458332"/><path d="M4.498 1.058h-.265v.265h.265z" style="display:inline;fill:#498795;fill-opacity:1;stroke-width:.26458332"/><path d="M4.762 1.058h-.264v.265h.264zM4.762.794h-.264v.264h.264z" style="display:inline;fill:#498795;fill-opacity:1;stroke-width:.26458332"/><path d="M4.498.794h-.265v.264h.265z" style="display:inline;fill:#498795;fill-opacity:1;stroke-width:.26458332"/><path d="M4.233.794H3.97v.264h.264z" style="display:inline;fill:#498795;fill-opacity:1;stroke-width:.26458332"/></g><path d="M3.969 1.587h.264v.265H3.97Z" style="fill:#74acba;fill-opacity:1;stroke-width:.26458332"/><path d="M3.704 1.587h.265v.265h-.265ZM3.44 1.587h.264v.265H3.44ZM3.175 1.852h.265v.265h-.265ZM2.91 2.117h.265v.264H2.91ZM2.646 2.646h.264v.264h-.264ZM2.381 2.91h.265v.265H2.38Z" style="fill:#74acba;fill-opacity:1;stroke-width:.26458332"/><path d="M2.381 3.175h.265v.265H2.38ZM2.381 3.44h.265v.264H2.38ZM2.381 3.704h.265v.265H2.38Z" style="fill:#74acba;fill-opacity:1;stroke-width:.26458332"/><path d="M2.381 3.969h.265v.264H2.38ZM2.381 4.233h.265v.265H2.38ZM2.646 4.498h.264v.264h-.264ZM2.91 5.027h.265v.265H2.91ZM3.175 5.292h.265v.264h-.265ZM3.44 5.556h.264v.265H3.44ZM3.704 5.556h.265v.265h-.265Z" style="fill:#74acba;fill-opacity:1;stroke-width:.26458332"/><path d="M3.969 5.82h.264v.265H3.97ZM4.233 5.82h.265v.265h-.265ZM4.498 5.82h.264v.265h-.264ZM4.233 1.587h.265v.265h-.265ZM4.233 1.323h.265v.264h-.265ZM3.969 1.323h.264v.264H3.97ZM4.498 1.323h.264v.264h-.264ZM4.763 1.323h.264v.264h-.264ZM4.763 1.587h.264v.265h-.264ZM5.027 1.587h.265v.265h-.265ZM5.292 1.587h.264v.265h-.264ZM5.556 1.852h.265v.265h-.265ZM5.82 2.117h.265v.264h-.264ZM6.085 2.381h.265v.265h-.265ZM6.35 2.646h.265v.264H6.35ZM6.35 2.91h.265v.265H6.35Z" style="fill:#74acba;fill-opacity:1;stroke-width:.26458332"/><path d="M6.35 3.175h.265v.265H6.35ZM6.35 3.704h.265v.265H6.35Z" style="fill:#74acba;fill-opacity:1;stroke-width:.26458332"/><path d="M6.35 3.704h.265v.265H6.35Z" style="fill:#74acba;fill-opacity:1;stroke-width:.26458332"/><path d="M6.35 3.969h.265v.264H6.35ZM6.35 4.233h.265v.265H6.35ZM6.35 4.498h.265v.264H6.35ZM6.085 4.763h.265v.264h-.265ZM5.82 5.027h.265v.265h-.264ZM6.085 5.027h.265v.265h-.265ZM5.82 5.292h.265v.264h-.264Z" style="fill:#74acba;fill-opacity:1;stroke-width:.26458332"/><path d="M5.556 5.292h.265v.264h-.265Z" style="fill:#74acba;fill-opacity:1;stroke-width:.26458332"/><path d="M5.556 5.292h.265v.264h-.265ZM5.292 5.556h.264v.265h-.264ZM5.027 5.556h.265v.265h-.265Z" style="fill:#74acba;fill-opacity:1;stroke-width:.26458332"/><path d="M5.027 5.82h.265v.265h-.265ZM4.763 5.82h.264v.265h-.264ZM4.498 1.587h.264v.265h-.264ZM5.027 1.323h.265v.264h-.265ZM6.615 3.175h.264v.265h-.264ZM6.615 3.44h.264v.264h-.264ZM6.615 3.704h.264v.265h-.264Z" style="fill:#74acba;fill-opacity:1;stroke-width:.26458332"/><path d="M6.615 3.969h.264v.264h-.264ZM6.615 4.233h.264v.265h-.264Z" style="fill:#74acba;fill-opacity:1;stroke-width:.26458332"/><path d="M6.615 4.233h.264v.265h-.264ZM6.35 3.44h.265v.264H6.35ZM6.085 2.646h.265v.264h-.265ZM6.085 2.91h.265v.265h-.265Z" style="fill:#74acba;fill-opacity:1;stroke-width:.26458332"/><path d="M6.085 3.175h.265v.265h-.265ZM6.085 3.44h.265v.264h-.265ZM6.085 3.704h.265v.265h-.265Z" style="fill:#74acba;fill-opacity:1;stroke-width:.26458332"/><path d="M6.085 3.969h.265v.264h-.265ZM6.085 4.233h.265v.265h-.265ZM6.085 4.498h.265v.264h-.265ZM5.82 4.763h.265v.264h-.264ZM5.82 4.498h.265v.264h-.264ZM5.82 4.233h.265v.265h-.264ZM5.82 3.969h.265v.264h-.264Z" style="fill:#74acba;fill-opacity:1;stroke-width:.26458332"/><path d="M5.82 3.704h.265v.265h-.264ZM5.82 3.44h.265v.264h-.264ZM5.82 3.175h.265v.265h-.264Z" style="fill:#74acba;fill-opacity:1;stroke-width:.26458332"/><path d="M5.82 2.91h.265v.265h-.264ZM5.82 2.646h.265v.264h-.264ZM5.82 2.381h.265v.265h-.264Z" style="fill:#74acba;fill-opacity:1;stroke-width:.26458332"/><path d="M5.556 2.117h.265v.264h-.265Z" style="fill:#74acba;fill-opacity:1;stroke-width:.26458332"/><path d="M5.556 2.381h.265v.265h-.265ZM5.556 2.646h.265v.264h-.265ZM5.556 2.91h.265v.265h-.265Z" style="fill:#74acba;fill-opacity:1;stroke-width:.26458332"/><path d="M5.556 3.175h.265v.265h-.265ZM5.556 3.44h.265v.264h-.265ZM5.556 3.704h.265v.265h-.265Z" style="fill:#74acba;fill-opacity:1;stroke-width:.26458332"/><path d="M5.556 3.969h.265v.264h-.265ZM5.556 4.233h.265v.265h-.265ZM5.556 4.498h.265v.264h-.265ZM5.556 4.763h.265v.264h-.265ZM5.556 5.027h.265v.265h-.265ZM5.292 5.292h.264v.264h-.264ZM5.292 5.027h.264v.265h-.264ZM5.292 4.763h.264v.264h-.264ZM5.292 4.498h.264v.264h-.264ZM5.292 4.233h.264v.265h-.264ZM5.292 3.969h.264v.264h-.264Z" style="fill:#74acba;fill-opacity:1;stroke-width:.26458332"/><path d="M5.292 3.704h.264v.265h-.264ZM5.292 3.44h.264v.264h-.264ZM5.292 3.175h.264v.265h-.264Z" style="fill:#74acba;fill-opacity:1;stroke-width:.26458332"/><path d="M5.292 2.91h.264v.265h-.264ZM5.292 2.646h.264v.264h-.264ZM5.292 2.381h.264v.265h-.264Z" style="fill:#74acba;fill-opacity:1;stroke-width:.26458332"/><path d="M5.292 2.117h.264v.264h-.264ZM5.292 1.852h.264v.265h-.264ZM5.027 1.852h.265v.265h-.265ZM4.763 1.852h.264v.265h-.264ZM4.498 1.852h.264v.265h-.264ZM4.233 1.852h.265v.265h-.265ZM3.969 1.852h.264v.265H3.97Z" style="fill:#74acba;fill-opacity:1;stroke-width:.26458332"/><path d="M3.704 1.852h.265v.265h-.265ZM3.44 1.852h.264v.265H3.44ZM3.175 2.117h.265v.264h-.265Z" style="fill:#74acba;fill-opacity:1;stroke-width:.26458332"/><path d="M2.91 2.381h.265v.265H2.91ZM2.91 2.646h.265v.264H2.91ZM2.646 2.91h.264v.265h-.264ZM2.91 2.91h.265v.265H2.91Z" style="fill:#74acba;fill-opacity:1;stroke-width:.26458332"/><path d="M2.91 3.175h.265v.265H2.91ZM2.646 3.175h.264v.265h-.264ZM2.646 3.44h.264v.264h-.264ZM2.91 3.44h.265v.264H2.91ZM2.91 3.704h.265v.265H2.91ZM2.646 3.704h.264v.265h-.264Z" style="fill:#74acba;fill-opacity:1;stroke-width:.26458332"/><path d="M2.646 3.969h.264v.264h-.264ZM2.646 4.233h.264v.265h-.264ZM2.91 4.233h.265v.265H2.91ZM2.91 3.969h.265v.264H2.91ZM2.91 4.498h.265v.264H2.91ZM2.91 4.763h.265v.264H2.91ZM3.175 5.027h.265v.265h-.265Z" style="fill:#74acba;fill-opacity:1;stroke-width:.26458332"/><path d="M3.175 4.763h.265v.264h-.265ZM3.175 4.498h.265v.264h-.265ZM3.175 4.233h.265v.265h-.265ZM3.175 3.969h.265v.264h-.265ZM3.175 3.44h.265v.264h-.265Z" style="fill:#74acba;fill-opacity:1;stroke-width:.26458332"/><path d="M3.175 3.704h.265v.265h-.265ZM3.175 3.175h.265v.265h-.265Z" style="fill:#74acba;fill-opacity:1;stroke-width:.26458332"/><path d="M3.175 2.91h.265v.265h-.265ZM3.175 2.646h.265v.264h-.265ZM3.175 2.381h.265v.265h-.265ZM3.44 2.117h.264v.264H3.44ZM3.704 2.117h.265v.264h-.265Z" style="fill:#74acba;fill-opacity:1;stroke-width:.26458332"/><path d="M3.969 2.117h.264v.264H3.97ZM4.233 2.117h.265v.264h-.265ZM4.498 2.117h.264v.264h-.264ZM4.763 2.117h.264v.264h-.264ZM5.027 2.117h.265v.264h-.265Z" style="fill:#74acba;fill-opacity:1;stroke-width:.26458332"/><path d="M5.027 2.381h.265v.265h-.265ZM4.763 2.381h.264v.265h-.264ZM4.498 2.381h.264v.265h-.264ZM4.233 2.381h.265v.265h-.265ZM3.969 2.381h.264v.265H3.97Z" style="fill:#74acba;fill-opacity:1;stroke-width:.26458332"/><path d="M3.704 2.381h.265v.265h-.265ZM3.44 2.381h.264v.265H3.44ZM3.44 2.646h.264v.264H3.44ZM3.44 2.91h.264v.265H3.44Z" style="fill:#74acba;fill-opacity:1;stroke-width:.26458332"/><path d="M3.44 3.175h.264v.265H3.44ZM3.44 3.44h.264v.264H3.44ZM3.44 3.704h.264v.265H3.44Z" style="fill:#74acba;fill-opacity:1;stroke-width:.26458332"/><path d="M3.44 3.969h.264v.264H3.44ZM3.44 4.233h.264v.265H3.44ZM3.44 4.498h.264v.264H3.44ZM3.44 4.763h.264v.264H3.44ZM3.44 5.027h.264v.265H3.44ZM3.44 5.292h.264v.264H3.44ZM3.704 5.292h.265v.264h-.265ZM3.704 5.027h.265v.265h-.265ZM3.969 5.556h.264v.265H3.97Z" style="fill:#74acba;fill-opacity:1;stroke-width:.26458332"/><path d="M3.969 5.292h.264v.264H3.97ZM3.969 5.027h.264v.265H3.97ZM3.969 4.763h.264v.264H3.97Z" style="fill:#74acba;fill-opacity:1;stroke-width:.26458332"/><path d="M3.704 4.763h.265v.264h-.265ZM3.704 4.498h.265v.264h-.265Z" style="fill:#74acba;fill-opacity:1;stroke-width:.26458332"/><path d="M3.969 4.498h.264v.264H3.97ZM3.969 4.233h.264v.265H3.97Z" style="fill:#74acba;fill-opacity:1;stroke-width:.26458332"/><path d="M3.704 4.233h.265v.265h-.265ZM3.704 3.969h.265v.264h-.265Z" style="fill:#74acba;fill-opacity:1;stroke-width:.26458332"/><path d="M3.969 3.969h.264v.264H3.97Z" style="fill:#74acba;fill-opacity:1;stroke-width:.26458332"/><path d="M3.969 3.704h.264v.265H3.97Z" style="fill:#74acba;fill-opacity:1;stroke-width:.26458332"/><path d="M3.704 3.704h.265v.265h-.265ZM3.704 3.44h.265v.264h-.265Z" style="fill:#74acba;fill-opacity:1;stroke-width:.26458332"/><path d="M3.969 3.44h.264v.264H3.97ZM3.969 3.175h.264v.265H3.97Z" style="fill:#74acba;fill-opacity:1;stroke-width:.26458332"/><path d="M3.704 3.175h.265v.265h-.265Z" style="fill:#74acba;fill-opacity:1;stroke-width:.26458332"/><path d="M3.704 2.91h.265v.265h-.265Z" style="fill:#74acba;fill-opacity:1;stroke-width:.26458332"/><path d="M3.969 2.91h.264v.265H3.97ZM3.969 2.646h.264v.264H3.97Z" style="fill:#74acba;fill-opacity:1;stroke-width:.26458332"/><path d="M3.704 2.646h.265v.264h-.265ZM4.233 2.646h.265v.264h-.265ZM4.498 2.646h.264v.264h-.264ZM4.763 2.646h.264v.264h-.264ZM5.027 2.646h.265v.264h-.265ZM5.027 2.91h.265v.265h-.265ZM4.763 2.91h.264v.265h-.264ZM4.498 2.91h.264v.265h-.264ZM4.233 2.91h.265v.265h-.265Z" style="fill:#74acba;fill-opacity:1;stroke-width:.26458332"/><path d="M4.233 3.175h.265v.265h-.265ZM4.498 3.175h.264v.265h-.264ZM4.763 3.175h.264v.265h-.264ZM5.027 3.175h.265v.265h-.265ZM5.027 3.44h.265v.264h-.265ZM4.763 3.44h.264v.264h-.264ZM4.498 3.44h.264v.264h-.264ZM4.233 3.44h.265v.264h-.265ZM4.233 3.704h.265v.265h-.265ZM4.498 3.704h.264v.265h-.264ZM4.763 3.704h.264v.265h-.264ZM5.027 3.704h.265v.265h-.265Z" style="fill:#74acba;fill-opacity:1;stroke-width:.26458332"/><path d="M5.027 3.969h.265v.264h-.265ZM4.763 3.969h.264v.264h-.264ZM4.498 3.969h.264v.264h-.264ZM4.233 3.969h.265v.264h-.265ZM4.233 4.233h.265v.265h-.265ZM4.498 4.233h.264v.265h-.264ZM4.763 4.233h.264v.265h-.264ZM5.027 4.233h.265v.265h-.265ZM5.027 4.498h.265v.264h-.265ZM4.763 4.498h.264v.264h-.264ZM4.498 4.498h.264v.264h-.264ZM4.233 4.498h.265v.264h-.265ZM4.233 4.763h.265v.264h-.265ZM4.498 4.763h.264v.264h-.264ZM4.763 4.763h.264v.264h-.264ZM5.027 4.763h.265v.264h-.265ZM4.763 5.027h.264v.265h-.264ZM5.027 5.027h.265v.265h-.265ZM4.498 5.027h.264v.265h-.264ZM4.233 5.027h.265v.265h-.265ZM4.233 5.292h.265v.264h-.265ZM4.498 5.292h.264v.264h-.264ZM5.027 5.292h.265v.264h-.265Z" style="fill:#74acba;fill-opacity:1;stroke-width:.26458332"/><path d="M5.027 5.292h.265v.264h-.265ZM4.763 5.556h.264v.265h-.264ZM4.498 5.556h.264v.265h-.264ZM4.233 5.556h.265v.265h-.265ZM4.763 5.292h.264v.264h-.264ZM6.615 2.91h.264v.265h-.264ZM2.646 2.381h.264v.265h-.264ZM3.704 1.323h.265v.264h-.265ZM3.704 5.82h.265v.265h-.265ZM5.292 5.82h.264v.265h-.264ZM5.556 5.556h.265v.265h-.265ZM5.292 1.323h.264v.264h-.264ZM5.556 1.587h.265v.265h-.265ZM5.82 1.852h.265v.265h-.264ZM6.085 2.117h.265v.264h-.265ZM6.35 2.381h.265v.265H6.35Z" style="fill:#74acba;fill-opacity:1;stroke-width:.26458332"/><path d="M3.44 3.969h.264v.264H3.44ZM3.704 3.969h.265v.264h-.265Z" style="fill:#000;fill-opacity:1;stroke-width:.26458332"/><path d="M3.969 3.969h.264v.264H3.97ZM4.233 3.969h.265v.264h-.265ZM4.498 3.969h.264v.264h-.264ZM4.763 3.969h.264v.264h-.264ZM5.027 3.969h.265v.264h-.265ZM5.292 3.969h.264v.264h-.264ZM5.556 3.969h.265v.264h-.265Z" style="fill:#000;fill-opacity:1;stroke-width:.26458332"/><path d="M5.82 3.969h.265v.264h-.264ZM6.085 3.969h.265v.264h-.265ZM6.085 4.498h.265v.264h-.265ZM5.82 4.763h.265v.264h-.264ZM5.556 5.027h.265v.265h-.265ZM5.292 5.027h.264v.265h-.264ZM5.027 5.292h.265v.264h-.265ZM4.763 5.292h.264v.264h-.264ZM4.498 5.292h.264v.264h-.264ZM4.233 5.027h.265v.265h-.265ZM3.969 5.027h.264v.265H3.97ZM3.704 4.763h.265v.264h-.265ZM3.44 4.498h.264v.264H3.44ZM3.44 4.233h.264v.265H3.44ZM3.704 4.233h.265v.265h-.265Z" style="fill:#000;fill-opacity:1;stroke-width:.26458332"/><path d="M3.969 4.233h.264v.265H3.97ZM4.498 4.233h.264v.265h-.264ZM4.233 4.233h.265v.265h-.265ZM4.763 4.233h.264v.265h-.264ZM5.027 4.233h.265v.265h-.265ZM5.292 4.233h.264v.265h-.264ZM5.556 4.233h.265v.265h-.265Z" style="fill:#000;fill-opacity:1;stroke-width:.26458332"/><path d="M5.82 4.233h.265v.265h-.264ZM5.82 4.498h.265v.264h-.264Z" style="fill:#000;fill-opacity:1;stroke-width:.26458332"/><path d="M5.556 4.498h.265v.264h-.265ZM5.292 4.498h.264v.264h-.264ZM5.027 4.498h.265v.264h-.265ZM4.763 4.498h.264v.264h-.264ZM4.498 4.498h.264v.264h-.264ZM4.233 4.498h.265v.264h-.265ZM3.969 4.498h.264v.264H3.97Z" style="fill:#000;fill-opacity:1;stroke-width:.26458332"/><path d="M3.704 4.498h.265v.264h-.265ZM3.969 4.763h.264v.264H3.97ZM4.233 4.763h.265v.264h-.265ZM4.498 4.763h.264v.264h-.264ZM4.763 4.763h.264v.264h-.264ZM5.027 4.763h.265v.264h-.265ZM5.292 4.763h.264v.264h-.264ZM5.556 4.763h.265v.264h-.265ZM5.027 5.027h.265v.265h-.265ZM4.763 5.027h.264v.265h-.264ZM4.498 5.027h.264v.265h-.264ZM6.085 4.233h.265v.265h-.265Z" style="fill:#000;fill-opacity:1;stroke-width:.26458332"/><g style="display:inline"><path d="M3.44 3.969h.264v.264H3.44ZM3.704 3.969h.265v.264h-.265Z" style="fill:#fff;fill-opacity:1;stroke-width:.26458332"/><path d="M3.969 3.969h.264v.264H3.97ZM4.233 3.969h.265v.264h-.265ZM4.498 3.969h.264v.264h-.264ZM4.763 3.969h.264v.264h-.264ZM5.027 3.969h.265v.264h-.265ZM5.292 3.969h.264v.264h-.264ZM5.556 3.969h.265v.264h-.265Z" style="fill:#fff;fill-opacity:1;stroke-width:.26458332"/><path d="M5.82 3.969h.265v.264h-.264ZM5.82 4.233h.265v.265h-.264Z" style="fill:#fff;fill-opacity:1;stroke-width:.26458332"/><path d="M5.556 4.233h.265v.265h-.265ZM5.292 4.233h.264v.265h-.264ZM5.027 4.233h.265v.265h-.265ZM4.763 4.233h.264v.265h-.264ZM4.498 4.233h.264v.265h-.264ZM4.233 4.233h.265v.265h-.265ZM3.969 4.233h.264v.265H3.97Z" style="fill:#fff;fill-opacity:1;stroke-width:.26458332"/><path d="M3.704 4.233h.265v.265h-.265ZM3.44 4.233h.264v.265H3.44Z" style="fill:#fff;fill-opacity:1;stroke-width:.26458332"/></g><path d="M3.704 2.91h.265v.265h-.265Z" style="fill:#000;fill-opacity:1;stroke-width:.26458332"/><path d="M3.704 3.175h.265v.265h-.265ZM3.704 3.44h.265v.264h-.265ZM3.44 3.44h.264v.264H3.44ZM3.44 2.91h.264v.265H3.44ZM3.175 2.91h.265v.265h-.265Z" style="fill:#000;fill-opacity:1;stroke-width:.26458332"/><path d="M3.175 3.175h.265v.265h-.265Z" style="fill:#000;fill-opacity:1;stroke-width:.26458332"/><path d="M3.44 3.175h.264v.265H3.44Z" style="fill:#fff;fill-opacity:1;stroke-width:.26458332"/><path d="M5.82 2.91h.265v.265h-.264ZM6.085 2.91h.265v.265h-.265ZM6.35 2.91h.265v.265H6.35Z" style="fill:#000;fill-opacity:1;stroke-width:.26458332"/><path d="M6.35 3.175h.265v.265H6.35ZM6.35 3.44h.265v.264H6.35ZM6.085 3.44h.265v.264h-.265ZM5.82 3.175h.265v.265h-.264Z" style="fill:#000;fill-opacity:1;stroke-width:.26458332"/><path d="M6.085 3.175h.265v.265h-.265Z" style="fill:#fff;fill-opacity:1;stroke-width:.26458332"/><g style="display:inline"><path d="M1.323 5.292h.264v.264h-.264Z" style="fill:#57959e;fill-opacity:1;stroke-width:.26458332"/><path d="M1.587 5.292h.265v.264h-.265Z" style="fill:#57959e;fill-opacity:1;stroke-width:.26458332"/><path d="M1.852 5.292h.265v.264h-.265Z" style="fill:#57959e;fill-opacity:1;stroke-width:.26458392"/><path d="M2.117 5.292h.264v.264h-.264Z" style="fill:#57959e;fill-opacity:1;stroke-width:.26458332"/><path d="M2.381 5.292h.265v.264H2.38ZM2.646 5.292h.264v.264h-.264ZM2.646 5.556h.264v.265h-.264ZM2.91 5.556h.265v.265H2.91Z" style="fill:#57959e;fill-opacity:1;stroke-width:.26458332"/><path d="M2.91 5.82h.265v.265H2.91Z" style="fill:#57959e;fill-opacity:1;stroke-width:.26458332"/><path d="M3.175 5.82h.265v.265h-.265ZM3.175 6.085h.265v.265h-.265ZM3.44 6.085h.264v.265H3.44ZM3.44 6.35h.264v.265H3.44ZM3.44 6.615h.264v.264H3.44ZM3.44 6.88h.264v.264H3.44ZM3.175 6.88h.265v.264h-.265Z" style="fill:#57959e;fill-opacity:1;stroke-width:.26458332"/><path d="M2.91 6.88h.265v.264H2.91ZM2.646 6.88h.264v.264h-.264ZM2.381 6.88h.265v.264H2.38Z" style="fill:#57959e;fill-opacity:1;stroke-width:.26458332"/><path d="M2.117 6.88h.264v.264h-.264ZM1.852 6.88h.265v.264h-.265ZM1.587 6.88h.265v.264h-.265Z" style="fill:#57959e;fill-opacity:1;stroke-width:.26458332"/><path d="M1.323 6.88h.264v.264h-.264ZM1.058 6.88h.265v.264h-.265Z" style="fill:#57959e;fill-opacity:1;stroke-width:.26458332"/><path d="M.794 6.88h.264v.264H.794ZM.53 6.88h.264v.264H.529zM.265 6.88h.264v.264H.265ZM.265 6.615h.264v.264H.265ZM.265 6.35h.264v.265H.265ZM.53 6.085h.264v.265H.529zM.53 5.82h.264v.265H.529zM.794 5.82h.264v.265H.794Z" style="fill:#57959e;fill-opacity:1;stroke-width:.26458332"/><path d="M.794 5.556h.264v.265H.794Z" style="fill:#57959e;fill-opacity:1;stroke-width:.26458332"/><path d="M1.058 5.556h.265v.265h-.265ZM1.058 5.292h.265v.264h-.265ZM.265 6.085h.264v.265H.265ZM1.323 5.556h.264v.265h-.264Z" style="fill:#57959e;fill-opacity:1;stroke-width:.26458332"/><path d="M1.587 5.556h.265v.265h-.265ZM1.852 5.556h.265v.265h-.265ZM2.117 5.556h.264v.265h-.264Z" style="fill:#57959e;fill-opacity:1;stroke-width:.26458332"/><path d="M2.381 5.556h.265v.265H2.38ZM2.646 5.82h.264v.265h-.264Z" style="fill:#57959e;fill-opacity:1;stroke-width:.26458332"/><path d="M2.381 5.82h.265v.265H2.38Z" style="fill:#57959e;fill-opacity:1;stroke-width:.26458332"/><path d="M2.117 5.82h.264v.265h-.264ZM1.852 5.82h.265v.265h-.265ZM1.587 5.82h.265v.265h-.265Z" style="fill:#57959e;fill-opacity:1;stroke-width:.26458332"/><path d="M1.323 5.82h.264v.265h-.264ZM1.058 5.82h.265v.265h-.265ZM.794 6.085h.264v.265H.794ZM.53 6.35h.264v.265H.529zM.53 6.615h.264v.264H.529zM.794 6.615h.264v.264H.794ZM.794 6.35h.264v.265H.794Z" style="fill:#57959e;fill-opacity:1;stroke-width:.26458332"/><path d="M1.058 6.085h.265v.265h-.265ZM1.058 6.35h.265v.265h-.265ZM1.058 6.615h.265v.264h-.265ZM1.323 6.615h.264v.264h-.264ZM1.323 6.35h.264v.265h-.264ZM1.323 6.085h.264v.265h-.264Z" style="fill:#57959e;fill-opacity:1;stroke-width:.26458332"/><path d="M1.587 6.085h.265v.265h-.265ZM1.587 6.35h.265v.265h-.265ZM1.587 6.615h.265v.264h-.265ZM1.852 6.615h.265v.264h-.265ZM1.852 6.35h.265v.265h-.265ZM1.852 6.085h.265v.265h-.265ZM2.117 6.085h.264v.265h-.264ZM2.117 6.35h.264v.265h-.264ZM2.117 6.615h.264v.264h-.264Z" style="fill:#57959e;fill-opacity:1;stroke-width:.26458332"/><path d="M2.381 6.615h.265v.264H2.38ZM2.381 6.35h.265v.265H2.38ZM2.381 6.085h.265v.265H2.38ZM2.646 6.085h.264v.265h-.264ZM2.646 6.35h.264v.265h-.264ZM2.646 6.615h.264v.264h-.264ZM2.91 6.615h.265v.264H2.91Z" style="fill:#57959e;fill-opacity:1;stroke-width:.26458332"/><path d="M3.175 6.615h.265v.264h-.265ZM3.175 6.35h.265v.265h-.265Z" style="fill:#57959e;fill-opacity:1;stroke-width:.26458332"/><path d="M2.91 6.35h.265v.265H2.91ZM2.91 6.085h.265v.265H2.91Z" style="fill:#57959e;fill-opacity:1;stroke-width:.26458332"/></g></svg>