<svg xmlns="http://www.w3.org/2000/svg" xmlns:xlink="http://www.w3.org/1999/xlink" viewBox="0 0 48 48"><defs><linearGradient id="c" x2="0" y1="14" y2="34" gradientUnits="userSpaceOnUse"><stop stop-color="#ebebeb"/><stop offset="1" stop-color="#eee"/></linearGradient><linearGradient id="a" x2="0" y1="19" y2="6" gradientUnits="userSpaceOnUse"><stop stop-color="#fff"/><stop offset="1" stop-color="#fff" stop-opacity="0"/></linearGradient><mask id="b"><rect width="15" height="18" x="13" y="1" fill="url(#a)" opacity=".4" rx="1"/></mask></defs><rect width="44" height="20" x="2" y="15" opacity=".1" rx="1"/><g mask="url(#b)"><path d="M15.531 1.781A.86.86 0 0 0 15 3.031c1.735 3.12 4.045 6.486 5.25 9.188.603 1.35.89 2.519.813 3.312-.077.794-.345 1.244-1.375 1.656A.86.86 0 0 0 20 18.875h5a.86.86 0 0 0 .875-.875c0-3.477-2.658-7.217-4.25-10.156-.796-1.47-1.277-2.777-1.25-3.313.013-.268.04-.29.219-.406.179-.116.623-.25 1.406-.25a.86.86 0 0 0 .063-1.719l-6.25-.375a.86.86 0 0 0-.282 0z"/><path fill="#6a6a6a" d="M20 18c5-2-.83-9.26-4.237-15.386L22 3c-7 0 3 9 3 15z"/></g><rect width="44" height="20" x="2" y="14" fill="url(#c)" rx="1"/><rect width="40" height="15" x="4" y="18" fill="#fff" opacity=".839" rx="1"/><rect width="40" height="15" x="4" y="17" fill="#171717" opacity=".839" rx="1"/><path d="M9 22c-.554 0-1 .446-1 1v2H6c-.554 0-1 .446-1 1v2c0 .554.446 1 1 1h2v2c0 .554.446 1 1 1h2c.554 0 1-.446 1-1v-2h2c.554 0 1-.446 1-1v-2c0-.554-.446-1-1-1h-2v-2c0-.554-.446-1-1-1H9zm9 5c-.554 0-1 .446-1 1v2c0 .554.446 1 1 1h9c.554 0 1-.446 1-1v-2c0-.554-.446-1-1-1h-9zm13 0c-.554 0-1 .446-1 1v3c0 .554.446 1 1 1h3c.554 0 1-.446 1-1v-3c0-.554-.446-1-1-1h-3zm6 0c-.554 0-1 .446-1 1v3c0 .554.446 1 1 1h3c.554 0 1-.446 1-1v-3c0-.554-.446-1-1-1h-3z"/><path fill="#ebebeb" d="M9 21c-.554 0-1 .446-1 1v2H6c-.554 0-1 .446-1 1v2c0 .554.446 1 1 1h2v2c0 .554.446 1 1 1h2c.554 0 1-.446 1-1v-2h2c.554 0 1-.446 1-1v-2c0-.554-.446-1-1-1h-2v-2c0-.554-.446-1-1-1H9zm9 5c-.554 0-1 .446-1 1v2c0 .554.446 1 1 1h9c.554 0 1-.446 1-1v-2c0-.554-.446-1-1-1h-9zm13 0c-.554 0-1 .446-1 1v3c0 .554.446 1 1 1h3c.554 0 1-.446 1-1v-3c0-.554-.446-1-1-1h-3zm6 0c-.554 0-1 .446-1 1v3c0 .554.446 1 1 1h3c.554 0 1-.446 1-1v-3c0-.554-.446-1-1-1h-3z"/><g fill="#171717"><rect width="2" height="8" x="25" y="-14" rx=".8" transform="rotate(90)"/><rect width="2" height="8" x="-11" y="-30" rx=".8" transform="scale(-1)"/></g><rect width="4" height="2" x="18" y="28" fill="#fff" opacity=".7" rx=".8"/><rect width="4" height="2" x="18" y="27" fill="#171717" rx=".8"/><rect width="4" height="2" x="23" y="28" fill="#fff" opacity=".7" rx=".8"/><rect width="4" height="2" x="23" y="27" fill="#171717" rx=".8"/><g fill="#fff"><rect width="11" height="2" x="17" y="23" opacity=".4" rx=".8"/><rect width="11" height="2" x="17" y="20" opacity=".4" rx=".8"/><rect width="11" height="2" x="17" y="17" opacity=".4" rx=".8"/></g><g fill="#d02604"><path d="M31 20h1v2h-1zM32 21h1v1h-1zM34 20h1v2h-1zM36 21h1v1h-1zM37 20h1v2h-1zM39 20h1v1h-1z"/></g><path fill="none" stroke="#000" d="M3 14.531a.464.464 0 0 0-.469.469v18c0 .262.207.469.469.469h42a.464.464 0 0 0 .469-.469V15a.464.464 0 0 0-.469-.469H3z" opacity=".3"/><path fill="#fff" d="M3 15h42v1H3z" opacity=".8"/><path id="d" fill="#d02604" d="M34 28.5a1.5 1.5 0 1 1-3 0 1.5 1.5 0 1 1 3 0z"/><use xlink:href="#d" width="1" height="1" transform="translate(6)"/><path fill="#fff" d="M17 31.06h11v.809H17z" opacity=".4"/></svg>